<mxfile host="Electron" modified="2024-05-02T16:34:50.356Z" agent="Mozilla/5.0 (Windows NT 10.0; Win64; x64) AppleWebKit/537.36 (KHTML, like Gecko) draw.io/21.6.8 Chrome/114.0.5735.289 Electron/25.5.0 Safari/537.36" etag="2I2KXrI-XP6IwoDbmZ1B" version="21.6.8" type="device">
  <diagram id="R2lEEEUBdFMjLlhIrx00" name="Page-1">
    <mxGraphModel dx="1963" dy="1006" grid="1" gridSize="10" guides="1" tooltips="1" connect="1" arrows="1" fold="1" page="1" pageScale="1" pageWidth="850" pageHeight="1100" math="0" shadow="0" extFonts="Permanent Marker^https://fonts.googleapis.com/css?family=Permanent+Marker">
      <root>
        <mxCell id="0" />
        <mxCell id="1" parent="0" />
        <mxCell id="xaTSddJX5UOjHFdCfALR-1" value="Дебют" style="whiteSpace=wrap;html=1;align=center;" parent="1" vertex="1">
          <mxGeometry x="375.5" y="705" width="100" height="30" as="geometry" />
        </mxCell>
        <mxCell id="xaTSddJX5UOjHFdCfALR-2" value="Партия" style="whiteSpace=wrap;html=1;align=center;" parent="1" vertex="1">
          <mxGeometry x="375.5" y="525" width="100" height="30" as="geometry" />
        </mxCell>
        <mxCell id="xaTSddJX5UOjHFdCfALR-4" value="Приём" style="whiteSpace=wrap;html=1;align=center;" parent="1" vertex="1">
          <mxGeometry x="728" y="780" width="100" height="30" as="geometry" />
        </mxCell>
        <mxCell id="xaTSddJX5UOjHFdCfALR-59" value="Платформа" style="whiteSpace=wrap;html=1;align=center;" parent="1" vertex="1">
          <mxGeometry x="580.5" width="100" height="30" as="geometry" />
        </mxCell>
        <mxCell id="xaTSddJX5UOjHFdCfALR-67" value="Пользователь" style="whiteSpace=wrap;html=1;align=center;" parent="1" vertex="1">
          <mxGeometry x="375.5" y="180" width="100" height="30" as="geometry" />
        </mxCell>
        <mxCell id="xaTSddJX5UOjHFdCfALR-68" value="Страна" style="whiteSpace=wrap;html=1;align=center;" parent="1" vertex="1">
          <mxGeometry x="375.5" width="100" height="30" as="geometry" />
        </mxCell>
        <mxCell id="xaTSddJX5UOjHFdCfALR-72" value="Временной контроль" style="whiteSpace=wrap;html=1;align=center;" parent="1" vertex="1">
          <mxGeometry x="723" y="525" width="100" height="30" as="geometry" />
        </mxCell>
        <mxCell id="xaTSddJX5UOjHFdCfALR-73" value="Звание" style="whiteSpace=wrap;html=1;align=center;" parent="1" vertex="1">
          <mxGeometry x="185.5" width="100" height="30" as="geometry" />
        </mxCell>
        <mxCell id="xaTSddJX5UOjHFdCfALR-79" value="Содержит" style="shape=rhombus;perimeter=rhombusPerimeter;whiteSpace=wrap;html=1;align=center;" parent="1" vertex="1">
          <mxGeometry x="365.5" y="420" width="120" height="60" as="geometry" />
        </mxCell>
        <mxCell id="xaTSddJX5UOjHFdCfALR-82" value="" style="endArrow=none;html=1;rounded=0;exitX=0.5;exitY=0;exitDx=0;exitDy=0;entryX=0.5;entryY=1;entryDx=0;entryDy=0;" parent="1" source="xaTSddJX5UOjHFdCfALR-2" target="xaTSddJX5UOjHFdCfALR-79" edge="1">
          <mxGeometry relative="1" as="geometry">
            <mxPoint x="438" y="390" as="sourcePoint" />
            <mxPoint x="598" y="390" as="targetPoint" />
          </mxGeometry>
        </mxCell>
        <mxCell id="xaTSddJX5UOjHFdCfALR-84" value="Играет на" style="shape=rhombus;perimeter=rhombusPerimeter;whiteSpace=wrap;html=1;align=center;" parent="1" vertex="1">
          <mxGeometry x="570.5" y="82" width="120" height="60" as="geometry" />
        </mxCell>
        <mxCell id="xaTSddJX5UOjHFdCfALR-86" value="" style="endArrow=none;html=1;rounded=0;exitX=0.5;exitY=0;exitDx=0;exitDy=0;entryX=0.5;entryY=1;entryDx=0;entryDy=0;" parent="1" source="xaTSddJX5UOjHFdCfALR-84" target="xaTSddJX5UOjHFdCfALR-59" edge="1">
          <mxGeometry relative="1" as="geometry">
            <mxPoint x="435.5" y="240" as="sourcePoint" />
            <mxPoint x="600.5" y="290" as="targetPoint" />
          </mxGeometry>
        </mxCell>
        <mxCell id="xaTSddJX5UOjHFdCfALR-91" value="Органичена" style="shape=rhombus;perimeter=rhombusPerimeter;whiteSpace=wrap;html=1;align=center;" parent="1" vertex="1">
          <mxGeometry x="543" y="510" width="120" height="60" as="geometry" />
        </mxCell>
        <mxCell id="xaTSddJX5UOjHFdCfALR-95" value="" style="endArrow=none;html=1;rounded=0;entryX=0;entryY=0.5;entryDx=0;entryDy=0;exitX=1;exitY=0.5;exitDx=0;exitDy=0;" parent="1" source="xaTSddJX5UOjHFdCfALR-2" target="xaTSddJX5UOjHFdCfALR-91" edge="1">
          <mxGeometry relative="1" as="geometry">
            <mxPoint x="483" y="545" as="sourcePoint" />
            <mxPoint x="388" y="550" as="targetPoint" />
          </mxGeometry>
        </mxCell>
        <mxCell id="xaTSddJX5UOjHFdCfALR-96" value="" style="endArrow=none;html=1;rounded=0;exitX=1;exitY=0.5;exitDx=0;exitDy=0;entryX=0;entryY=0.5;entryDx=0;entryDy=0;" parent="1" source="xaTSddJX5UOjHFdCfALR-91" target="xaTSddJX5UOjHFdCfALR-72" edge="1">
          <mxGeometry relative="1" as="geometry">
            <mxPoint x="353" y="560" as="sourcePoint" />
            <mxPoint x="398" y="560" as="targetPoint" />
          </mxGeometry>
        </mxCell>
        <mxCell id="xaTSddJX5UOjHFdCfALR-97" value="Выступает за" style="shape=rhombus;perimeter=rhombusPerimeter;whiteSpace=wrap;html=1;align=center;" parent="1" vertex="1">
          <mxGeometry x="365.5" y="80" width="120" height="60" as="geometry" />
        </mxCell>
        <mxCell id="xaTSddJX5UOjHFdCfALR-99" value="" style="endArrow=none;html=1;rounded=0;exitX=0.5;exitY=1;exitDx=0;exitDy=0;" parent="1" source="xaTSddJX5UOjHFdCfALR-97" target="xaTSddJX5UOjHFdCfALR-67" edge="1">
          <mxGeometry relative="1" as="geometry">
            <mxPoint x="275.5" y="340" as="sourcePoint" />
            <mxPoint x="275.5" y="390" as="targetPoint" />
          </mxGeometry>
        </mxCell>
        <mxCell id="xaTSddJX5UOjHFdCfALR-100" value="" style="endArrow=none;html=1;rounded=0;exitX=0.5;exitY=1;exitDx=0;exitDy=0;entryX=0.5;entryY=0;entryDx=0;entryDy=0;" parent="1" source="xaTSddJX5UOjHFdCfALR-68" target="xaTSddJX5UOjHFdCfALR-97" edge="1">
          <mxGeometry relative="1" as="geometry">
            <mxPoint x="285.5" y="350" as="sourcePoint" />
            <mxPoint x="285.5" y="400" as="targetPoint" />
          </mxGeometry>
        </mxCell>
        <mxCell id="xaTSddJX5UOjHFdCfALR-106" value="Имеет" style="shape=rhombus;perimeter=rhombusPerimeter;whiteSpace=wrap;html=1;align=center;" parent="1" vertex="1">
          <mxGeometry x="175.5" y="80" width="120" height="60" as="geometry" />
        </mxCell>
        <mxCell id="xaTSddJX5UOjHFdCfALR-107" value="" style="endArrow=none;html=1;rounded=0;exitX=0.5;exitY=1;exitDx=0;exitDy=0;entryX=0.5;entryY=0;entryDx=0;entryDy=0;" parent="1" source="xaTSddJX5UOjHFdCfALR-73" target="xaTSddJX5UOjHFdCfALR-106" edge="1">
          <mxGeometry relative="1" as="geometry">
            <mxPoint x="275.5" y="340" as="sourcePoint" />
            <mxPoint x="275.5" y="390" as="targetPoint" />
          </mxGeometry>
        </mxCell>
        <mxCell id="xaTSddJX5UOjHFdCfALR-108" value="" style="endArrow=none;html=1;rounded=0;exitX=0.5;exitY=1;exitDx=0;exitDy=0;entryX=0;entryY=0.5;entryDx=0;entryDy=0;" parent="1" source="xaTSddJX5UOjHFdCfALR-106" target="xaTSddJX5UOjHFdCfALR-67" edge="1">
          <mxGeometry relative="1" as="geometry">
            <mxPoint x="285.5" y="350" as="sourcePoint" />
            <mxPoint x="285.5" y="400" as="targetPoint" />
            <Array as="points">
              <mxPoint x="235.5" y="195" />
            </Array>
          </mxGeometry>
        </mxCell>
        <mxCell id="xaTSddJX5UOjHFdCfALR-110" value="Разыгрывается в" style="shape=rhombus;perimeter=rhombusPerimeter;whiteSpace=wrap;html=1;align=center;" parent="1" vertex="1">
          <mxGeometry x="365.5" y="597" width="120" height="60" as="geometry" />
        </mxCell>
        <mxCell id="xaTSddJX5UOjHFdCfALR-112" value="" style="endArrow=none;html=1;rounded=0;exitX=0.5;exitY=1;exitDx=0;exitDy=0;entryX=0.5;entryY=0;entryDx=0;entryDy=0;" parent="1" source="xaTSddJX5UOjHFdCfALR-2" target="xaTSddJX5UOjHFdCfALR-110" edge="1">
          <mxGeometry relative="1" as="geometry">
            <mxPoint x="443" y="545" as="sourcePoint" />
            <mxPoint x="603" y="545" as="targetPoint" />
          </mxGeometry>
        </mxCell>
        <mxCell id="xaTSddJX5UOjHFdCfALR-113" value="" style="endArrow=none;html=1;rounded=0;exitX=0.5;exitY=0;exitDx=0;exitDy=0;entryX=0.5;entryY=1;entryDx=0;entryDy=0;" parent="1" source="xaTSddJX5UOjHFdCfALR-1" target="xaTSddJX5UOjHFdCfALR-110" edge="1">
          <mxGeometry relative="1" as="geometry">
            <mxPoint x="438" y="565" as="sourcePoint" />
            <mxPoint x="438" y="625" as="targetPoint" />
          </mxGeometry>
        </mxCell>
        <mxCell id="xaTSddJX5UOjHFdCfALR-114" value="Содержит" style="shape=rhombus;perimeter=rhombusPerimeter;whiteSpace=wrap;html=1;align=center;" parent="1" vertex="1">
          <mxGeometry x="23" y="645" width="120" height="60" as="geometry" />
        </mxCell>
        <mxCell id="xaTSddJX5UOjHFdCfALR-120" value="N" style="text;html=1;strokeColor=none;fillColor=none;align=center;verticalAlign=middle;whiteSpace=wrap;rounded=0;" parent="1" vertex="1">
          <mxGeometry x="468" y="510" width="60" height="30" as="geometry" />
        </mxCell>
        <mxCell id="xaTSddJX5UOjHFdCfALR-121" value="N" style="text;html=1;strokeColor=none;fillColor=none;align=center;verticalAlign=middle;whiteSpace=wrap;rounded=0;" parent="1" vertex="1">
          <mxGeometry x="408" y="555" width="60" height="30" as="geometry" />
        </mxCell>
        <mxCell id="xaTSddJX5UOjHFdCfALR-124" value="N" style="text;html=1;strokeColor=none;fillColor=none;align=center;verticalAlign=middle;whiteSpace=wrap;rounded=0;" parent="1" vertex="1">
          <mxGeometry x="408" y="380" width="60" height="30" as="geometry" />
        </mxCell>
        <mxCell id="xaTSddJX5UOjHFdCfALR-125" value="N" style="text;html=1;strokeColor=none;fillColor=none;align=center;verticalAlign=middle;whiteSpace=wrap;rounded=0;" parent="1" vertex="1">
          <mxGeometry x="470.5" y="170" width="60" height="30" as="geometry" />
        </mxCell>
        <mxCell id="xaTSddJX5UOjHFdCfALR-126" value="N" style="text;html=1;strokeColor=none;fillColor=none;align=center;verticalAlign=middle;whiteSpace=wrap;rounded=0;" parent="1" vertex="1">
          <mxGeometry x="380.5" y="142" width="60" height="30" as="geometry" />
        </mxCell>
        <mxCell id="xaTSddJX5UOjHFdCfALR-130" value="1" style="text;html=1;strokeColor=none;fillColor=none;align=center;verticalAlign=middle;whiteSpace=wrap;rounded=0;" parent="1" vertex="1">
          <mxGeometry x="577.5" y="40" width="60" height="30" as="geometry" />
        </mxCell>
        <mxCell id="xaTSddJX5UOjHFdCfALR-133" value="1" style="text;html=1;strokeColor=none;fillColor=none;align=center;verticalAlign=middle;whiteSpace=wrap;rounded=0;" parent="1" vertex="1">
          <mxGeometry x="215.5" y="30" width="60" height="30" as="geometry" />
        </mxCell>
        <mxCell id="xaTSddJX5UOjHFdCfALR-135" value="1" style="text;html=1;strokeColor=none;fillColor=none;align=center;verticalAlign=middle;whiteSpace=wrap;rounded=0;" parent="1" vertex="1">
          <mxGeometry x="375.5" y="30" width="60" height="30" as="geometry" />
        </mxCell>
        <mxCell id="xaTSddJX5UOjHFdCfALR-140" value="1" style="text;html=1;strokeColor=none;fillColor=none;align=center;verticalAlign=middle;whiteSpace=wrap;rounded=0;" parent="1" vertex="1">
          <mxGeometry x="668" y="510" width="60" height="30" as="geometry" />
        </mxCell>
        <mxCell id="xaTSddJX5UOjHFdCfALR-141" value="1" style="text;html=1;strokeColor=none;fillColor=none;align=center;verticalAlign=middle;whiteSpace=wrap;rounded=0;" parent="1" vertex="1">
          <mxGeometry x="408" y="675" width="60" height="30" as="geometry" />
        </mxCell>
        <mxCell id="xaTSddJX5UOjHFdCfALR-142" value="N" style="text;html=1;strokeColor=none;fillColor=none;align=center;verticalAlign=middle;whiteSpace=wrap;rounded=0;" parent="1" vertex="1">
          <mxGeometry x="33" y="745" width="60" height="30" as="geometry" />
        </mxCell>
        <mxCell id="e8aCg_3v-VIgvuCnboIP-9" value="Ход" style="whiteSpace=wrap;html=1;align=center;" parent="1" vertex="1">
          <mxGeometry x="33" y="780" width="100" height="30" as="geometry" />
        </mxCell>
        <mxCell id="e8aCg_3v-VIgvuCnboIP-18" value="N" style="text;html=1;strokeColor=none;fillColor=none;align=center;verticalAlign=middle;whiteSpace=wrap;rounded=0;" parent="1" vertex="1">
          <mxGeometry x="308" y="765" width="60" height="30" as="geometry" />
        </mxCell>
        <mxCell id="e8aCg_3v-VIgvuCnboIP-20" value="N" style="text;html=1;strokeColor=none;fillColor=none;align=center;verticalAlign=middle;whiteSpace=wrap;rounded=0;" parent="1" vertex="1">
          <mxGeometry x="315.5" y="172" width="60" height="30" as="geometry" />
        </mxCell>
        <mxCell id="e8aCg_3v-VIgvuCnboIP-27" value="" style="endArrow=none;html=1;rounded=0;exitX=0.5;exitY=1;exitDx=0;exitDy=0;entryX=0.5;entryY=0;entryDx=0;entryDy=0;" parent="1" source="xaTSddJX5UOjHFdCfALR-114" target="e8aCg_3v-VIgvuCnboIP-9" edge="1">
          <mxGeometry relative="1" as="geometry">
            <mxPoint x="508" y="855" as="sourcePoint" />
            <mxPoint x="668" y="855" as="targetPoint" />
          </mxGeometry>
        </mxCell>
        <mxCell id="e8aCg_3v-VIgvuCnboIP-30" value="1" style="text;html=1;strokeColor=none;fillColor=none;align=center;verticalAlign=middle;whiteSpace=wrap;rounded=0;" parent="1" vertex="1">
          <mxGeometry x="348" y="555" width="60" height="30" as="geometry" />
        </mxCell>
        <mxCell id="e8aCg_3v-VIgvuCnboIP-33" value="Задействованный приём" style="whiteSpace=wrap;html=1;align=center;" parent="1" vertex="1">
          <mxGeometry x="368" y="780" width="120" height="30" as="geometry" />
        </mxCell>
        <mxCell id="e8aCg_3v-VIgvuCnboIP-35" value="Отражает" style="shape=rhombus;perimeter=rhombusPerimeter;whiteSpace=wrap;html=1;align=center;" parent="1" vertex="1">
          <mxGeometry x="543" y="765" width="120" height="60" as="geometry" />
        </mxCell>
        <mxCell id="e8aCg_3v-VIgvuCnboIP-36" value="Отражает" style="shape=rhombus;perimeter=rhombusPerimeter;whiteSpace=wrap;html=1;align=center;" parent="1" vertex="1">
          <mxGeometry x="188" y="765" width="120" height="60" as="geometry" />
        </mxCell>
        <mxCell id="e8aCg_3v-VIgvuCnboIP-37" style="edgeStyle=orthogonalEdgeStyle;rounded=0;orthogonalLoop=1;jettySize=auto;html=1;exitX=0.5;exitY=1;exitDx=0;exitDy=0;" parent="1" source="e8aCg_3v-VIgvuCnboIP-9" target="e8aCg_3v-VIgvuCnboIP-9" edge="1">
          <mxGeometry relative="1" as="geometry" />
        </mxCell>
        <mxCell id="e8aCg_3v-VIgvuCnboIP-38" value="" style="endArrow=none;html=1;rounded=0;exitX=0;exitY=0.5;exitDx=0;exitDy=0;entryX=1;entryY=0.5;entryDx=0;entryDy=0;" parent="1" source="e8aCg_3v-VIgvuCnboIP-36" target="e8aCg_3v-VIgvuCnboIP-9" edge="1">
          <mxGeometry relative="1" as="geometry">
            <mxPoint x="598" y="682" as="sourcePoint" />
            <mxPoint x="638" y="750" as="targetPoint" />
          </mxGeometry>
        </mxCell>
        <mxCell id="e8aCg_3v-VIgvuCnboIP-39" value="" style="endArrow=none;html=1;rounded=0;exitX=1;exitY=0.5;exitDx=0;exitDy=0;entryX=0;entryY=0.5;entryDx=0;entryDy=0;" parent="1" source="e8aCg_3v-VIgvuCnboIP-36" target="e8aCg_3v-VIgvuCnboIP-33" edge="1">
          <mxGeometry relative="1" as="geometry">
            <mxPoint x="528" y="910" as="sourcePoint" />
            <mxPoint x="713" y="850" as="targetPoint" />
          </mxGeometry>
        </mxCell>
        <mxCell id="e8aCg_3v-VIgvuCnboIP-40" value="" style="endArrow=none;html=1;rounded=0;exitX=1;exitY=0.5;exitDx=0;exitDy=0;entryX=0;entryY=0.5;entryDx=0;entryDy=0;" parent="1" source="e8aCg_3v-VIgvuCnboIP-33" target="e8aCg_3v-VIgvuCnboIP-35" edge="1">
          <mxGeometry relative="1" as="geometry">
            <mxPoint x="618" y="702" as="sourcePoint" />
            <mxPoint x="618" y="765" as="targetPoint" />
          </mxGeometry>
        </mxCell>
        <mxCell id="e8aCg_3v-VIgvuCnboIP-41" value="" style="endArrow=none;html=1;rounded=0;exitX=1;exitY=0.5;exitDx=0;exitDy=0;entryX=0;entryY=0.5;entryDx=0;entryDy=0;" parent="1" source="e8aCg_3v-VIgvuCnboIP-35" target="xaTSddJX5UOjHFdCfALR-4" edge="1">
          <mxGeometry relative="1" as="geometry">
            <mxPoint x="628" y="712" as="sourcePoint" />
            <mxPoint x="628" y="775" as="targetPoint" />
          </mxGeometry>
        </mxCell>
        <mxCell id="e8aCg_3v-VIgvuCnboIP-43" value="1" style="text;html=1;strokeColor=none;fillColor=none;align=center;verticalAlign=middle;whiteSpace=wrap;rounded=0;" parent="1" vertex="1">
          <mxGeometry x="133" y="765" width="60" height="30" as="geometry" />
        </mxCell>
        <mxCell id="e8aCg_3v-VIgvuCnboIP-44" style="edgeStyle=orthogonalEdgeStyle;rounded=0;orthogonalLoop=1;jettySize=auto;html=1;exitX=0.5;exitY=1;exitDx=0;exitDy=0;" parent="1" source="e8aCg_3v-VIgvuCnboIP-9" target="e8aCg_3v-VIgvuCnboIP-9" edge="1">
          <mxGeometry relative="1" as="geometry" />
        </mxCell>
        <mxCell id="e8aCg_3v-VIgvuCnboIP-46" value="" style="endArrow=none;html=1;rounded=0;exitX=0.25;exitY=1;exitDx=0;exitDy=0;entryX=0.5;entryY=0;entryDx=0;entryDy=0;" parent="1" source="xaTSddJX5UOjHFdCfALR-2" target="xaTSddJX5UOjHFdCfALR-114" edge="1">
          <mxGeometry relative="1" as="geometry">
            <mxPoint x="598" y="667" as="sourcePoint" />
            <mxPoint x="228" y="615" as="targetPoint" />
            <Array as="points">
              <mxPoint x="400" y="585" />
              <mxPoint x="83" y="585" />
            </Array>
          </mxGeometry>
        </mxCell>
        <mxCell id="e8aCg_3v-VIgvuCnboIP-49" value="N" style="text;html=1;strokeColor=none;fillColor=none;align=center;verticalAlign=middle;whiteSpace=wrap;rounded=0;" parent="1" vertex="1">
          <mxGeometry x="478" y="765" width="60" height="30" as="geometry" />
        </mxCell>
        <mxCell id="e8aCg_3v-VIgvuCnboIP-50" value="1" style="text;html=1;strokeColor=none;fillColor=none;align=center;verticalAlign=middle;whiteSpace=wrap;rounded=0;" parent="1" vertex="1">
          <mxGeometry x="668" y="765" width="60" height="30" as="geometry" />
        </mxCell>
        <mxCell id="S2RM9NdafYYMuJ0vrdVo-1" value="Пользователь_Партия" style="whiteSpace=wrap;html=1;align=center;" parent="1" vertex="1">
          <mxGeometry x="355.5" y="350" width="140" height="30" as="geometry" />
        </mxCell>
        <mxCell id="S2RM9NdafYYMuJ0vrdVo-3" value="Участвует в" style="shape=rhombus;perimeter=rhombusPerimeter;whiteSpace=wrap;html=1;align=center;" parent="1" vertex="1">
          <mxGeometry x="365.5" y="250" width="120" height="60" as="geometry" />
        </mxCell>
        <mxCell id="S2RM9NdafYYMuJ0vrdVo-4" value="" style="endArrow=none;html=1;rounded=0;entryX=0.5;entryY=1;entryDx=0;entryDy=0;" parent="1" source="S2RM9NdafYYMuJ0vrdVo-1" target="S2RM9NdafYYMuJ0vrdVo-3" edge="1">
          <mxGeometry relative="1" as="geometry">
            <mxPoint x="555" y="450" as="sourcePoint" />
            <mxPoint x="625" y="480" as="targetPoint" />
          </mxGeometry>
        </mxCell>
        <mxCell id="S2RM9NdafYYMuJ0vrdVo-7" value="1" style="text;html=1;strokeColor=none;fillColor=none;align=center;verticalAlign=middle;whiteSpace=wrap;rounded=0;" parent="1" vertex="1">
          <mxGeometry x="410.5" y="210" width="60" height="30" as="geometry" />
        </mxCell>
        <mxCell id="S2RM9NdafYYMuJ0vrdVo-8" value="N" style="text;html=1;strokeColor=none;fillColor=none;align=center;verticalAlign=middle;whiteSpace=wrap;rounded=0;" parent="1" vertex="1">
          <mxGeometry x="408" y="320" width="60" height="30" as="geometry" />
        </mxCell>
        <mxCell id="S2RM9NdafYYMuJ0vrdVo-9" value="1" style="text;html=1;strokeColor=none;fillColor=none;align=center;verticalAlign=middle;whiteSpace=wrap;rounded=0;" parent="1" vertex="1">
          <mxGeometry x="408" y="495" width="60" height="30" as="geometry" />
        </mxCell>
        <mxCell id="XXpCbzZ9JkJxsfFu4iri-1" value="" style="endArrow=none;html=1;rounded=0;exitX=1;exitY=0.5;exitDx=0;exitDy=0;entryX=0.5;entryY=1;entryDx=0;entryDy=0;" edge="1" parent="1" source="xaTSddJX5UOjHFdCfALR-67" target="xaTSddJX5UOjHFdCfALR-84">
          <mxGeometry relative="1" as="geometry">
            <mxPoint x="640.5" y="92" as="sourcePoint" />
            <mxPoint x="640.5" y="40" as="targetPoint" />
            <Array as="points">
              <mxPoint x="630.5" y="195" />
            </Array>
          </mxGeometry>
        </mxCell>
        <mxCell id="XXpCbzZ9JkJxsfFu4iri-7" value="" style="endArrow=none;html=1;rounded=0;entryX=0.5;entryY=1;entryDx=0;entryDy=0;" edge="1" parent="1" source="S2RM9NdafYYMuJ0vrdVo-3" target="xaTSddJX5UOjHFdCfALR-67">
          <mxGeometry relative="1" as="geometry">
            <mxPoint x="195" y="300" as="sourcePoint" />
            <mxPoint x="195" y="252" as="targetPoint" />
          </mxGeometry>
        </mxCell>
        <mxCell id="XXpCbzZ9JkJxsfFu4iri-8" value="" style="endArrow=none;html=1;rounded=0;entryX=0.5;entryY=1;entryDx=0;entryDy=0;" edge="1" parent="1" source="xaTSddJX5UOjHFdCfALR-79" target="S2RM9NdafYYMuJ0vrdVo-1">
          <mxGeometry relative="1" as="geometry">
            <mxPoint x="615" y="300" as="sourcePoint" />
            <mxPoint x="615" y="252" as="targetPoint" />
          </mxGeometry>
        </mxCell>
      </root>
    </mxGraphModel>
  </diagram>
</mxfile>
